<svg viewBox="0 0 64 32" xmlns="http://www.w3.org/2000/svg">
  <defs>
    <!-- Gold → Amber Gradient -->
    <linearGradient id="toggleGrad" x1="0%" y1="0%" x2="100%" y2="100%">
      <stop offset="0%" stop-color="#ffd86b"/>
      <stop offset="50%" stop-color="#ffb347"/>
      <stop offset="100%" stop-color="#ff8c42"/>
    </linearGradient>

    <!-- Magical Glow -->
    <filter id="toggleGlow" x="-50%" y="-50%" width="200%" height="200%">
      <feGaussianBlur stdDeviation="3" result="b"/>
      <feColorMatrix in="b" type="matrix"
        values="1 0 0 0 0
                0 0.85 0 0 0
                0 0 0.4 0 0
                0 0 0 0.75 0"/>
    </filter>
  </defs>

  <!-- SUN (left side) -->
  <g id="sun" transform="translate(0,0)">
    <circle cx="16" cy="16" r="7" fill="url(#toggleGrad)" filter="url(#toggleGlow)"/>
    <g stroke="url(#toggleGrad)" stroke-width="1.6" stroke-linecap="round">
      <line x1="16" y1="3" x2="16" y2="8"/>
      <line x1="16" y1="24" x2="16" y2="29"/>
      <line x1="3" y1="16" x2="8" y2="16"/>
      <line x1="24" y1="16" x2="29" y2="16"/>
      <line x1="7" y1="7" x2="10" y2="10"/>
      <line x1="22" y1="22" x2="25" y2="25"/>
      <line x1="22" y1="10" x2="25" y2="7"/>
      <line x1="7" y1="25" x2="10" y2="22"/>
    </g>
  </g>

  <!-- MOON (right side) -->
  <g id="moon" transform="translate(32,0)">
    <path d="M21 7a8 8 0 1 0 0 18 7 7 0 1 1 0-18z"
          fill="url(#toggleGrad)" filter="url(#toggleGlow)"/>
  </g>
</svg>

